# xmcd
#
# Track frame offsets: 
#        150
#        21134
#        44136
#        65052
#        85602
#        105996
#        140319
#        162465
#        197947
#        209018
#        232825
#
# Disc length: 3356 seconds
#
# Revision: 0
# Processed by: cddbd v1.5.2PL0 Copyright (c) Steve Scherf et al.
# Submitted via: ExactAudioCopy v0.95b3
#
DISCID=990d1a0b
DTITLE=Doug Cox and Todd Butler - Live Blues
DYEAR=1900
DGENRE=Blues
TTITLE0=Mind Your Own Business
TTITLE1=Musta Notta Gotta Lotta
TTITLE2=Wee Wee Hours
TTITLE3=I Can't Hold Out
TTITLE4=Cold When I'm Dead
TTITLE5=Too Much Alcohol
TTITLE6=Messin With The Kid
TTITLE7=It Don't Make Sense
TTITLE8=Turned My Baby Around
TTITLE9=Mama Just Wants To Barrelhouse All Night Long
TTITLE10=Rope Strechin' Blues
EXTD=
EXTT0=
EXTT1=
EXTT2=
EXTT3=
EXTT4=
EXTT5=
EXTT6=
EXTT7=
EXTT8=
EXTT9=
EXTT10=
PLAYORDER=
